<?xml version="1.0" encoding="UTF-8"?>
<!DOCTYPE svg PUBLIC "-//W3C//DTD SVG 1.1//EN" "http://www.w3.org/Graphics/SVG/1.1/DTD/svg11.dtd">
<svg xmlns="http://www.w3.org/2000/svg" version="1.1" width="1043px" height="1043px" style="shape-rendering:geometricPrecision; text-rendering:geometricPrecision; image-rendering:optimizeQuality; fill-rule:evenodd; clip-rule:evenodd" xmlns:xlink="http://www.w3.org/1999/xlink">
<g><path style="opacity:1" fill="#fefefe" d="M -0.5,-0.5 C 347.167,-0.5 694.833,-0.5 1042.5,-0.5C 1042.5,347.167 1042.5,694.833 1042.5,1042.5C 694.833,1042.5 347.167,1042.5 -0.5,1042.5C -0.5,694.833 -0.5,347.167 -0.5,-0.5 Z"/></g>
<g><path style="opacity:1" fill="#224098" d="M 445.5,484.5 C 444.904,477.892 443.57,471.558 441.5,465.5C 440.566,464.432 440.232,463.099 440.5,461.5C 440.741,459.102 440.074,457.102 438.5,455.5C 438.5,455.167 438.5,454.833 438.5,454.5C 438.741,452.102 438.074,450.102 436.5,448.5C 436.5,448.167 436.5,447.833 436.5,447.5C 435.276,440.833 433.276,434.499 430.5,428.5C 423.472,405.263 411.472,385.096 394.5,368C 376.6,352.627 356.6,349.293 334.5,358C 311.481,367.689 291.147,381.355 273.5,399C 243.001,430.506 217.501,465.672 197,504.5C 185.426,525.974 175.259,547.974 166.5,570.5C 164.935,572.509 163.935,574.843 163.5,577.5C 160.98,582.208 159.314,587.208 158.5,592.5C 156.416,595.053 155.083,598.053 154.5,601.5C 153.239,608.069 151.239,614.402 148.5,620.5C 146.39,624.502 145.057,628.835 144.5,633.5C 143.076,635.515 142.41,637.848 142.5,640.5C 142.5,640.833 142.5,641.167 142.5,641.5C 140.926,643.102 140.259,645.102 140.5,647.5C 140.5,647.833 140.5,648.167 140.5,648.5C 138.926,650.102 138.259,652.102 138.5,654.5C 137.166,659.934 135.833,665.267 134.5,670.5C 132.882,674.575 131.882,678.908 131.5,683.5C 131.5,684.167 131.5,684.833 131.5,685.5C 130.076,687.515 129.41,689.848 129.5,692.5C 129.552,694.903 129.219,697.236 128.5,699.5C 126.439,705.879 125.439,712.546 125.5,719.5C 124.539,721.265 124.205,723.265 124.5,725.5C 122.896,729.9 122.229,734.566 122.5,739.5C 121.686,741.631 121.186,743.964 121,746.5C 120.814,743.964 120.314,741.631 119.5,739.5C 119.5,738.5 119.5,737.5 119.5,736.5C 119.28,711.155 119.613,685.821 120.5,660.5C 120.5,659.167 120.5,657.833 120.5,656.5C 122.136,652.79 122.802,648.79 122.5,644.5C 122.5,644.167 122.5,643.833 122.5,643.5C 123.957,638.402 124.624,633.069 124.5,627.5C 126.043,621.72 127.043,615.72 127.5,609.5C 129.138,604.752 130.138,599.752 130.5,594.5C 131.65,589.56 132.65,584.56 133.5,579.5C 134.924,577.485 135.59,575.152 135.5,572.5C 135.5,572.167 135.5,571.833 135.5,571.5C 136.924,569.485 137.59,567.152 137.5,564.5C 138.301,562.958 138.634,561.292 138.5,559.5C 140.074,557.898 140.741,555.898 140.5,553.5C 140.56,550.659 141.226,547.993 142.5,545.5C 143.924,543.485 144.59,541.152 144.5,538.5C 145.924,536.485 146.59,534.152 146.5,531.5C 150.537,521.057 154.204,510.391 157.5,499.5C 158.924,497.485 159.59,495.152 159.5,492.5C 189.888,406.726 234.055,328.726 292,258.5C 316.201,230.962 345.701,211.462 380.5,200C 414.079,188.911 445.413,193.244 474.5,213C 500.837,231.353 523.171,253.686 541.5,280C 509.624,349.906 477.957,419.739 446.5,489.5C 445.548,487.955 445.215,486.288 445.5,484.5 Z"/></g>
<g><path style="opacity:1" fill="#254299" d="M 935.5,249.5 C 933.266,253.522 931.599,257.856 930.5,262.5C 923.137,276.336 913.47,288.502 901.5,299C 882.241,314.962 860.908,327.295 837.5,336C 853.846,320.106 866.846,301.94 876.5,281.5C 878.834,279.824 879.834,277.491 879.5,274.5C 879.5,274.167 879.5,273.833 879.5,273.5C 880.653,267.681 880.819,261.681 880,255.5C 879.722,254.584 879.222,253.918 878.5,253.5C 875.14,246.627 869.807,241.794 862.5,239C 854.409,236.151 846.076,234.485 837.5,234C 863.823,225.402 890.823,221.736 918.5,223C 924.915,224.124 930.415,226.957 935,231.5C 935.499,237.491 935.666,243.491 935.5,249.5 Z"/></g>
<g><path style="opacity:1" fill="#a0add3" d="M 825.5,228.5 C 824.732,227.737 824.232,226.737 824,225.5C 823.814,228.036 823.314,230.369 822.5,232.5C 822.241,228.76 822.574,225.094 823.5,221.5C 823.833,221.167 824.167,220.833 824.5,220.5C 825.48,223.086 825.813,225.753 825.5,228.5 Z"/></g>
<g><path style="opacity:1" fill="#224098" d="M 825.5,228.5 C 825.5,229.833 825.5,231.167 825.5,232.5C 826.344,251.82 826.677,271.154 826.5,290.5C 826.5,294.5 826.5,298.5 826.5,302.5C 824.922,307.583 824.255,312.916 824.5,318.5C 823.771,323.13 823.437,327.797 823.5,332.5C 820.756,346.299 818.422,360.299 816.5,374.5C 815.417,381.578 814.084,388.578 812.5,395.5C 811.076,397.515 810.41,399.848 810.5,402.5C 810.149,405.903 809.482,409.237 808.5,412.5C 806.926,414.102 806.259,416.102 806.5,418.5C 806.435,421.428 805.768,424.095 804.5,426.5C 803.076,428.515 802.41,430.848 802.5,433.5C 801.566,434.568 801.232,435.901 801.5,437.5C 799.723,440.505 798.723,443.838 798.5,447.5C 795.724,453.499 793.724,459.833 792.5,466.5C 789.599,472.527 787.266,478.861 785.5,485.5C 782.647,492.723 779.98,500.057 777.5,507.5C 775.935,509.509 774.935,511.843 774.5,514.5C 774.443,515.609 774.11,516.609 773.5,517.5C 771.935,519.509 770.935,521.843 770.5,524.5C 768.935,526.509 767.935,528.843 767.5,531.5C 740.931,593.287 707.097,650.954 666,704.5C 647.825,728.02 625.991,747.187 600.5,762C 573.921,776.249 545.587,782.582 515.5,781C 494.627,775.897 475.96,766.563 459.5,753C 446.367,742.201 434.2,730.368 423,717.5C 416.713,710.551 411.213,703.051 406.5,695C 437.732,626.169 468.732,557.335 499.5,488.5C 500.833,492.5 502.167,496.5 503.5,500.5C 503.5,500.833 503.5,501.167 503.5,501.5C 503.41,504.152 504.076,506.485 505.5,508.5C 506.167,511.833 506.833,515.167 507.5,518.5C 507.259,520.898 507.926,522.898 509.5,524.5C 509.41,527.152 510.076,529.485 511.5,531.5C 512.057,536.165 513.39,540.498 515.5,544.5C 515.755,546.967 516.755,548.967 518.5,550.5C 519.167,552.5 519.833,554.5 520.5,556.5C 520.166,559.491 521.166,561.824 523.5,563.5C 530.802,581.256 541.469,596.756 555.5,610C 568.366,620.844 583.033,624.51 599.5,621C 622.117,615.028 642.117,604.361 659.5,589C 695.253,555.933 724.086,517.767 746,474.5C 750.08,466.671 754.413,459.004 759,451.5C 764.83,438.201 770.664,424.868 776.5,411.5C 778.834,409.824 779.834,407.491 779.5,404.5C 782.376,397.226 785.043,389.893 787.5,382.5C 788.117,382.389 788.617,382.056 789,381.5C 792.681,371.293 795.848,360.96 798.5,350.5C 800.277,347.495 801.277,344.162 801.5,340.5C 803.074,338.898 803.741,336.898 803.5,334.5C 805.287,329.013 806.621,323.346 807.5,317.5C 808.924,315.485 809.59,313.152 809.5,310.5C 810.463,306.899 811.13,303.233 811.5,299.5C 812.117,299.389 812.617,299.056 813,298.5C 814.453,292.926 815.286,287.259 815.5,281.5C 815.5,280.833 815.5,280.167 815.5,279.5C 817.265,276.877 817.932,273.877 817.5,270.5C 817.232,268.901 817.566,267.568 818.5,266.5C 820.966,255.435 822.299,244.102 822.5,232.5C 823.314,230.369 823.814,228.036 824,225.5C 824.232,226.737 824.732,227.737 825.5,228.5 Z"/></g>
<g><path style="opacity:1" fill="#94a1cd" d="M 822.5,232.5 C 822.299,244.102 820.966,255.435 818.5,266.5C 819.2,254.955 820.534,243.622 822.5,232.5 Z"/></g>
<g><path style="opacity:1" fill="#a3aed4" d="M 935.5,249.5 C 935.176,254.461 933.509,258.794 930.5,262.5C 931.599,257.856 933.266,253.522 935.5,249.5 Z"/></g>
<g><path style="opacity:1" fill="#909fcc" d="M 825.5,232.5 C 826.317,234.969 826.817,237.635 827,240.5C 827.828,257.338 827.662,274.005 826.5,290.5C 826.677,271.154 826.344,251.82 825.5,232.5 Z"/></g>
<g><path style="opacity:1" fill="#b4bddc" d="M 878.5,253.5 C 879.222,253.918 879.722,254.584 880,255.5C 880.819,261.681 880.653,267.681 879.5,273.5C 879.664,266.798 879.331,260.131 878.5,253.5 Z"/></g>
<g><path style="opacity:1" fill="#a2aed4" d="M 817.5,270.5 C 817.932,273.877 817.265,276.877 815.5,279.5C 815.676,276.273 816.343,273.273 817.5,270.5 Z"/></g>
<g><path style="opacity:1" fill="#7988c0" d="M 879.5,274.5 C 879.834,277.491 878.834,279.824 876.5,281.5C 876.935,278.843 877.935,276.509 879.5,274.5 Z"/></g>
<g><path style="opacity:1" fill="#7e8cc2" d="M 815.5,281.5 C 815.286,287.259 814.453,292.926 813,298.5C 812.617,299.056 812.117,299.389 811.5,299.5C 812.264,293.249 813.597,287.249 815.5,281.5 Z"/></g>
<g><path style="opacity:1" fill="#8a99c9" d="M 809.5,310.5 C 809.59,313.152 808.924,315.485 807.5,317.5C 807.41,314.848 808.076,312.515 809.5,310.5 Z"/></g>
<g><path style="opacity:1" fill="#8c9ac9" d="M 826.5,302.5 C 826.844,308.098 826.178,313.432 824.5,318.5C 824.255,312.916 824.922,307.583 826.5,302.5 Z"/></g>
<g><path style="opacity:1" fill="#7989c0" d="M 803.5,334.5 C 803.741,336.898 803.074,338.898 801.5,340.5C 801.259,338.102 801.926,336.102 803.5,334.5 Z"/></g>
<g><path style="opacity:1" fill="#8695c7" d="M 801.5,340.5 C 801.277,344.162 800.277,347.495 798.5,350.5C 798.723,346.838 799.723,343.505 801.5,340.5 Z"/></g>
<g><path style="opacity:1" fill="#98a4cf" d="M 823.5,332.5 C 822.443,346.84 820.11,360.84 816.5,374.5C 818.422,360.299 820.756,346.299 823.5,332.5 Z"/></g>
<g><path style="opacity:1" fill="#8a98c8" d="M 798.5,350.5 C 795.848,360.96 792.681,371.293 789,381.5C 788.617,382.056 788.117,382.389 787.5,382.5C 790.796,371.609 794.463,360.943 798.5,350.5 Z"/></g>
<g><path style="opacity:1" fill="#8f9dcb" d="M 812.5,395.5 C 812.59,398.152 811.924,400.485 810.5,402.5C 810.41,399.848 811.076,397.515 812.5,395.5 Z"/></g>
<g><path style="opacity:1" fill="#6e7dba" d="M 779.5,404.5 C 779.834,407.491 778.834,409.824 776.5,411.5C 776.935,408.843 777.935,406.509 779.5,404.5 Z"/></g>
<g><path style="opacity:1" fill="#8e9ccb" d="M 808.5,412.5 C 808.741,414.898 808.074,416.898 806.5,418.5C 806.259,416.102 806.926,414.102 808.5,412.5 Z"/></g>
<g><path style="opacity:1" fill="#8c9ac9" d="M 804.5,426.5 C 804.59,429.152 803.924,431.485 802.5,433.5C 802.41,430.848 803.076,428.515 804.5,426.5 Z"/></g>
<g><path style="opacity:1" fill="#95a2ce" d="M 430.5,428.5 C 433.276,434.499 435.276,440.833 436.5,447.5C 433.724,441.501 431.724,435.167 430.5,428.5 Z"/></g>
<g><path style="opacity:1" fill="#96a3ce" d="M 801.5,437.5 C 801.277,441.162 800.277,444.495 798.5,447.5C 798.723,443.838 799.723,440.505 801.5,437.5 Z"/></g>
<g><path style="opacity:1" fill="#93a0cd" d="M 798.5,447.5 C 797.276,454.167 795.276,460.501 792.5,466.5C 793.724,459.833 795.724,453.499 798.5,447.5 Z"/></g>
<g><path style="opacity:1" fill="#a2add4" d="M 436.5,448.5 C 438.074,450.102 438.741,452.102 438.5,454.5C 436.926,452.898 436.259,450.898 436.5,448.5 Z"/></g>
<g><path style="opacity:1" fill="#95a2ce" d="M 438.5,455.5 C 440.074,457.102 440.741,459.102 440.5,461.5C 438.926,459.898 438.259,457.898 438.5,455.5 Z"/></g>
<g><path style="opacity:1" fill="#97a4cf" d="M 792.5,466.5 C 790.983,472.555 789.149,478.555 787,484.5C 786.617,485.056 786.117,485.389 785.5,485.5C 787.266,478.861 789.599,472.527 792.5,466.5 Z"/></g>
<g><path style="opacity:1" fill="#abb5d8" d="M 441.5,465.5 C 443.57,471.558 444.904,477.892 445.5,484.5C 442.776,478.587 441.443,472.254 441.5,465.5 Z"/></g>
<g><path style="opacity:1" fill="#7484bd" d="M 159.5,492.5 C 159.59,495.152 158.924,497.485 157.5,499.5C 157.41,496.848 158.076,494.515 159.5,492.5 Z"/></g>
<g><path style="opacity:1" fill="#8a98c8" d="M 503.5,500.5 C 502.167,496.5 500.833,492.5 499.5,488.5C 499.846,486.295 500.513,486.128 501.5,488C 502.4,492.133 503.067,496.3 503.5,500.5 Z"/></g>
<g><path style="opacity:1" fill="#909ecb" d="M 157.5,499.5 C 154.204,510.391 150.537,521.057 146.5,531.5C 149.152,521.04 152.319,510.707 156,500.5C 156.383,499.944 156.883,499.611 157.5,499.5 Z"/></g>
<g><path style="opacity:1" fill="#93a1cd" d="M 503.5,501.5 C 504.924,503.515 505.59,505.848 505.5,508.5C 504.076,506.485 503.41,504.152 503.5,501.5 Z"/></g>
<g><path style="opacity:1" fill="#a8b2d7" d="M 777.5,507.5 C 777.834,510.491 776.834,512.824 774.5,514.5C 774.935,511.843 775.935,509.509 777.5,507.5 Z"/></g>
<g><path style="opacity:1" fill="#aeb8d9" d="M 773.5,517.5 C 773.834,520.491 772.834,522.824 770.5,524.5C 770.935,521.843 771.935,519.509 773.5,517.5 Z"/></g>
<g><path style="opacity:1" fill="#8190c4" d="M 507.5,518.5 C 509.074,520.102 509.741,522.102 509.5,524.5C 507.926,522.898 507.259,520.898 507.5,518.5 Z"/></g>
<g><path style="opacity:1" fill="#8896c7" d="M 509.5,524.5 C 510.924,526.515 511.59,528.848 511.5,531.5C 510.076,529.485 509.41,527.152 509.5,524.5 Z"/></g>
<g><path style="opacity:1" fill="#a8b2d6" d="M 770.5,524.5 C 770.834,527.491 769.834,529.824 767.5,531.5C 767.935,528.843 768.935,526.509 770.5,524.5 Z"/></g>
<g><path style="opacity:1" fill="#8796c7" d="M 146.5,531.5 C 146.59,534.152 145.924,536.485 144.5,538.5C 144.41,535.848 145.076,533.515 146.5,531.5 Z"/></g>
<g><path style="opacity:1" fill="#7a8ac0" d="M 511.5,531.5 C 513.61,535.502 514.943,539.835 515.5,544.5C 513.39,540.498 512.057,536.165 511.5,531.5 Z"/></g>
<g><path style="opacity:1" fill="#8090c3" d="M 144.5,538.5 C 144.59,541.152 143.924,543.485 142.5,545.5C 142.41,542.848 143.076,540.515 144.5,538.5 Z"/></g>
<g><path style="opacity:1" fill="#97a4cf" d="M 515.5,544.5 C 517.245,546.033 518.245,548.033 518.5,550.5C 516.755,548.967 515.755,546.967 515.5,544.5 Z"/></g>
<g><path style="opacity:1" fill="#8493c6" d="M 140.5,553.5 C 140.741,555.898 140.074,557.898 138.5,559.5C 138.259,557.102 138.926,555.102 140.5,553.5 Z"/></g>
<g><path style="opacity:1" fill="#6e7dba" d="M 520.5,556.5 C 522.065,558.509 523.065,560.843 523.5,563.5C 521.166,561.824 520.166,559.491 520.5,556.5 Z"/></g>
<g><path style="opacity:1" fill="#8494c6" d="M 137.5,564.5 C 137.59,567.152 136.924,569.485 135.5,571.5C 135.41,568.848 136.076,566.515 137.5,564.5 Z"/></g>
<g><path style="opacity:1" fill="#a5afd5" d="M 166.5,570.5 C 166.834,573.491 165.834,575.824 163.5,577.5C 163.935,574.843 164.935,572.509 166.5,570.5 Z"/></g>
<g><path style="opacity:1" fill="#8b9ac9" d="M 135.5,572.5 C 135.59,575.152 134.924,577.485 133.5,579.5C 133.41,576.848 134.076,574.515 135.5,572.5 Z"/></g>
<g><path style="opacity:1" fill="#909ecb" d="M 158.5,592.5 C 157.917,595.947 156.584,598.947 154.5,601.5C 155.083,598.053 156.416,595.053 158.5,592.5 Z"/></g>
<g><path style="opacity:1" fill="#8292c5" d="M 130.5,594.5 C 130.138,599.752 129.138,604.752 127.5,609.5C 127.678,604.205 128.678,599.205 130.5,594.5 Z"/></g>
<g><path style="opacity:1" fill="#96a3ce" d="M 127.5,609.5 C 127.043,615.72 126.043,621.72 124.5,627.5C 124.439,621.196 125.439,615.196 127.5,609.5 Z"/></g>
<g><path style="opacity:1" fill="#98a4cf" d="M 148.5,620.5 C 147.943,625.165 146.61,629.498 144.5,633.5C 145.057,628.835 146.39,624.502 148.5,620.5 Z"/></g>
<g><path style="opacity:1" fill="#7182bd" d="M 124.5,627.5 C 124.624,633.069 123.957,638.402 122.5,643.5C 122.255,637.916 122.922,632.583 124.5,627.5 Z"/></g>
<g><path style="opacity:1" fill="#99a5cf" d="M 144.5,633.5 C 144.59,636.152 143.924,638.485 142.5,640.5C 142.41,637.848 143.076,635.515 144.5,633.5 Z"/></g>
<g><path style="opacity:1" fill="#a1add3" d="M 142.5,641.5 C 142.741,643.898 142.074,645.898 140.5,647.5C 140.259,645.102 140.926,643.102 142.5,641.5 Z"/></g>
<g><path style="opacity:1" fill="#95a2ce" d="M 140.5,648.5 C 140.741,650.898 140.074,652.898 138.5,654.5C 138.259,652.102 138.926,650.102 140.5,648.5 Z"/></g>
<g><path style="opacity:1" fill="#8a99c9" d="M 122.5,644.5 C 122.802,648.79 122.136,652.79 120.5,656.5C 120.198,652.21 120.864,648.21 122.5,644.5 Z"/></g>
<g><path style="opacity:1" fill="#8897c8" d="M 176.5,661.5 C 174.892,666.072 173.559,670.738 172.5,675.5C 172.482,669.614 173.482,663.948 175.5,658.5C 176.386,659.325 176.719,660.325 176.5,661.5 Z"/></g>
<g><path style="opacity:1" fill="#254299" d="M 277.5,663.5 C 276.129,665.936 275.129,668.603 274.5,671.5C 262.605,694.199 243.938,708.032 218.5,713C 199.625,717.317 183.625,712.483 170.5,698.5C 171.328,690.851 171.995,683.185 172.5,675.5C 173.559,670.738 174.892,666.072 176.5,661.5C 176.345,664.716 177.345,667.383 179.5,669.5C 183.03,676.632 188.697,681.465 196.5,684C 229.248,693.472 256.248,684.972 277.5,658.5C 278.666,660.167 278.666,661.834 277.5,663.5 Z"/></g>
<g><path style="opacity:1" fill="#7888c0" d="M 176.5,661.5 C 177.871,663.936 178.871,666.603 179.5,669.5C 177.345,667.383 176.345,664.716 176.5,661.5 Z"/></g>
<g><path style="opacity:1" fill="#8f9ccb" d="M 277.5,663.5 C 277.655,666.716 276.655,669.383 274.5,671.5C 275.129,668.603 276.129,665.936 277.5,663.5 Z"/></g>
<g><path style="opacity:1" fill="#a9b2d7" d="M 134.5,670.5 C 134.664,673.187 134.497,675.854 134,678.5C 133.901,680.653 133.067,682.319 131.5,683.5C 131.882,678.908 132.882,674.575 134.5,670.5 Z"/></g>
<g><path style="opacity:1" fill="#8594c6" d="M 120.5,660.5 C 119.613,685.821 119.28,711.155 119.5,736.5C 118.337,714.004 118.17,691.337 119,668.5C 119.183,665.635 119.683,662.969 120.5,660.5 Z"/></g>
<g><path style="opacity:1" fill="#7d8cc2" d="M 172.5,675.5 C 171.995,683.185 171.328,690.851 170.5,698.5C 169.464,690.736 170.13,683.069 172.5,675.5 Z"/></g>
<g><path style="opacity:1" fill="#7b8cc2" d="M 131.5,685.5 C 131.59,688.152 130.924,690.485 129.5,692.5C 129.41,689.848 130.076,687.515 131.5,685.5 Z"/></g>
<g><path style="opacity:1" fill="#9ba7d0" d="M 128.5,699.5 C 128.246,706.407 127.246,713.074 125.5,719.5C 125.439,712.546 126.439,705.879 128.5,699.5 Z"/></g>
<g><path style="opacity:1" fill="#9facd3" d="M 163.5,731.5 C 162.4,729.723 161.566,727.723 161,725.5C 160.768,726.737 160.268,727.737 159.5,728.5C 159.231,726.571 159.731,724.905 161,723.5C 162.731,725.862 163.565,728.529 163.5,731.5 Z"/></g>
<g><path style="opacity:1" fill="#254299" d="M 292.5,735.5 C 291.094,735.973 290.427,736.973 290.5,738.5C 279.937,758.146 264.271,772.313 243.5,781C 224.265,789.571 204.265,792.238 183.5,789C 172.493,785.082 162.66,779.249 154,771.5C 153.517,770.552 153.351,769.552 153.5,768.5C 155.054,764.433 155.72,760.1 155.5,755.5C 156.688,746.473 158.021,737.473 159.5,728.5C 160.268,727.737 160.768,726.737 161,725.5C 161.566,727.723 162.4,729.723 163.5,731.5C 169.422,746.173 180.422,754.673 196.5,757C 235.19,764.548 267.69,753.714 294,724.5C 294.256,728.246 293.756,731.913 292.5,735.5 Z"/></g>
<g><path style="opacity:1" fill="#93a0cd" d="M 124.5,725.5 C 124.877,730.453 124.211,735.119 122.5,739.5C 122.229,734.566 122.896,729.9 124.5,725.5 Z"/></g>
<g><path style="opacity:1" fill="#8c99c9" d="M 292.5,735.5 C 292.573,737.027 291.906,738.027 290.5,738.5C 290.427,736.973 291.094,735.973 292.5,735.5 Z"/></g>
<g><path style="opacity:1" fill="#98a5cf" d="M 119.5,739.5 C 120.314,741.631 120.814,743.964 121,746.5C 121.186,743.964 121.686,741.631 122.5,739.5C 122.129,759.396 121.129,759.396 119.5,739.5 Z"/></g>
<g><path style="opacity:1" fill="#6879b8" d="M 155.5,755.5 C 155.72,760.1 155.054,764.433 153.5,768.5C 153.28,763.9 153.946,759.567 155.5,755.5 Z"/></g>
</svg>
