<?xml version="1.0" encoding="UTF-8"?>
<!DOCTYPE svg PUBLIC "-//W3C//DTD SVG 1.1//EN" "http://www.w3.org/Graphics/SVG/1.1/DTD/svg11.dtd">
<svg xmlns="http://www.w3.org/2000/svg" version="1.1" width="300px" height="168px" style="shape-rendering:geometricPrecision; text-rendering:geometricPrecision; image-rendering:optimizeQuality; fill-rule:evenodd; clip-rule:evenodd" xmlns:xlink="http://www.w3.org/1999/xlink">
<g><path style="opacity:1" fill="#fdfdfd" d="M -0.5,-0.5 C 99.5,-0.5 199.5,-0.5 299.5,-0.5C 299.5,55.5 299.5,111.5 299.5,167.5C 199.5,167.5 99.5,167.5 -0.5,167.5C -0.5,111.5 -0.5,55.5 -0.5,-0.5 Z"/></g>
<g><path style="opacity:1" fill="#0e0e0e" d="M 18.5,39.5 C 25.8333,39.5 33.1667,39.5 40.5,39.5C 40.7135,41.1439 40.3802,42.6439 39.5,44C 34.1667,44.3333 28.8333,44.6667 23.5,45C 21.324,45.1629 19.4907,45.9963 18,47.5C 17.3333,54.8333 17.3333,62.1667 18,69.5C 19.1711,70.8932 20.6711,71.7265 22.5,72C 33.1667,72.6667 43.8333,72.6667 54.5,72C 58.7363,71.2572 60.4029,68.7572 59.5,64.5C 55.1539,64.6657 50.8206,64.499 46.5,64C 44.4732,62.6043 44.1398,60.9376 45.5,59C 53.1594,58.5003 60.8261,58.3336 68.5,58.5C 71.3741,70.4547 66.7075,76.9547 54.5,78C 43.8333,78.6667 33.1667,78.6667 22.5,78C 18.6595,77.124 14.9928,75.7906 11.5,74C 10.1068,72.8289 9.27346,71.3289 9,69.5C 8.33333,61.8333 8.33333,54.1667 9,46.5C 9.46524,45.0692 10.2986,43.9025 11.5,43C 13.9252,41.7874 16.2585,40.6207 18.5,39.5 Z"/></g>
<g><path style="opacity:1" fill="#0a0a0a" d="M 139.5,39.5 C 155.837,39.3334 172.17,39.5001 188.5,40C 198.461,41.3067 201.961,46.8067 199,56.5C 197.749,59.3807 195.583,61.214 192.5,62C 189.833,62.6667 187.167,63.3333 184.5,64C 172.171,64.4999 159.838,64.6665 147.5,64.5C 147.666,68.8461 147.499,73.1794 147,77.5C 144.333,78.8333 141.667,78.8333 139,77.5C 138.188,64.7579 138.354,52.0912 139.5,39.5 Z"/></g>
<g><path style="opacity:1" fill="#fdfdfd" d="M 147.5,44.5 C 160.837,44.3334 174.171,44.5001 187.5,45C 188.416,45.3742 189.25,45.8742 190,46.5C 190.667,49.8333 190.667,53.1667 190,56.5C 188.933,57.1905 187.766,57.6905 186.5,58C 173.504,58.4999 160.504,58.6666 147.5,58.5C 147.5,53.8333 147.5,49.1667 147.5,44.5 Z"/></g>
<g><path style="opacity:1" fill="#020202" d="M 86.5,47.5 C 97.1719,47.3335 107.839,47.5002 118.5,48C 122.906,48.1193 126.406,49.9527 129,53.5C 129.667,59.1667 129.667,64.8333 129,70.5C 127.42,74.2165 124.587,76.3832 120.5,77C 108.5,77.6667 96.5,77.6667 84.5,77C 81.4173,76.214 79.2506,74.3807 78,71.5C 77.3333,65.5 77.3333,59.5 78,53.5C 80.3218,50.6047 83.1552,48.6047 86.5,47.5 Z"/></g>
<g><path style="opacity:1" fill="#080808" d="M 216.5,47.5 C 221.544,47.1725 226.544,47.5059 231.5,48.5C 232.859,50.306 232.525,51.806 230.5,53C 226.167,53.3333 221.833,53.6667 217.5,54C 217,54.5 216.5,55 216,55.5C 215.667,62.8333 215.333,70.1667 215,77.5C 212.936,78.5914 210.769,78.7581 208.5,78C 207.352,69.9124 207.185,61.7457 208,53.5C 210.322,50.6047 213.155,48.6047 216.5,47.5 Z"/></g>
<g><path style="opacity:1" fill="#0a0a0a" d="M 249.5,47.5 C 259.506,47.3335 269.506,47.5002 279.5,48C 284.327,48.1506 287.827,50.3172 290,54.5C 290.909,60.6123 290.576,66.6123 289,72.5C 285.557,75.8739 281.39,77.7072 276.5,78C 267.5,78.6667 258.5,78.6667 249.5,78C 244.912,77.4623 241.412,75.2956 239,71.5C 238.333,65.5 238.333,59.5 239,53.5C 239.374,52.5838 239.874,51.7504 240.5,51C 243.459,49.3957 246.459,48.2291 249.5,47.5 Z"/></g>
<g><path style="opacity:1" fill="#f9f9f9" d="M 90.5,52.5 C 100.273,52.0525 109.939,52.5525 119.5,54C 120,54.5 120.5,55 121,55.5C 121.667,60.5 121.667,65.5 121,70.5C 120.25,71.1258 119.416,71.6258 118.5,72C 113.5,72.1667 108.5,72.3333 103.5,72.5C 97.7273,72.6215 92.0606,72.1215 86.5,71C 85.363,65.918 85.1963,60.7513 86,55.5C 87.4087,54.2189 88.9087,53.2189 90.5,52.5 Z"/></g>
<g><path style="opacity:1" fill="#f9f9f9" d="M 250.5,52.5 C 260.58,52.0766 270.58,52.5766 280.5,54C 281,54.5 281.5,55 282,55.5C 282.667,60.1667 282.667,64.8333 282,69.5C 281.167,70.3333 280.333,71.1667 279.5,72C 268.735,72.9522 258.068,72.6188 247.5,71C 246.363,65.918 246.196,60.7513 247,55.5C 248.145,54.3636 249.312,53.3636 250.5,52.5 Z"/></g>
<g><path style="opacity:1" fill="#169dd9" d="M 8.5,88.5 C 28.8333,88.5 49.1667,88.5 69.5,88.5C 69.5,101.833 69.5,115.167 69.5,128.5C 49.1667,128.5 28.8333,128.5 8.5,128.5C 8.5,115.167 8.5,101.833 8.5,88.5 Z"/></g>
<g><path style="opacity:1" fill="#e7e8e9" d="M 229.5,88.5 C 249.5,88.5 269.5,88.5 289.5,88.5C 289.5,101.5 289.5,114.5 289.5,127.5C 269.5,127.5 249.5,127.5 229.5,127.5C 229.5,114.5 229.5,101.5 229.5,88.5 Z"/></g>
<g><path style="opacity:1" fill="#0e5daa" d="M 155.5,88.5 C 175.833,88.5 196.167,88.5 216.5,88.5C 216.5,101.833 216.5,115.167 216.5,128.5C 196.167,128.5 175.833,128.5 155.5,128.5C 155.5,115.167 155.5,101.833 155.5,88.5 Z"/></g>
<g><path style="opacity:1" fill="#88c4e7" d="M 82.5,88.5 C 82.5,101.5 82.5,114.5 82.5,127.5C 102.5,127.5 122.5,127.5 142.5,127.5C 142.5,114.5 142.5,101.5 142.5,88.5C 143.496,101.656 143.829,114.99 143.5,128.5C 122.833,128.5 102.167,128.5 81.5,128.5C 81.1711,114.99 81.5044,101.656 82.5,88.5 Z"/></g>
<g><path style="opacity:1" fill="#0f9cd8" d="M 82.5,88.5 C 102.5,88.5 122.5,88.5 142.5,88.5C 142.5,101.5 142.5,114.5 142.5,127.5C 122.5,127.5 102.5,127.5 82.5,127.5C 82.5,114.5 82.5,101.5 82.5,88.5 Z"/></g>
</svg>
