<?xml version="1.0" encoding="UTF-8"?>
<!DOCTYPE svg PUBLIC "-//W3C//DTD SVG 1.1//EN" "http://www.w3.org/Graphics/SVG/1.1/DTD/svg11.dtd">
<svg xmlns="http://www.w3.org/2000/svg" version="1.1" width="277px" height="220px" style="shape-rendering:geometricPrecision; text-rendering:geometricPrecision; image-rendering:optimizeQuality; fill-rule:evenodd; clip-rule:evenodd" xmlns:xlink="http://www.w3.org/1999/xlink">
<g><path style="opacity:1" fill="#fdfdfe" d="M -0.5,-0.5 C 91.8333,-0.5 184.167,-0.5 276.5,-0.5C 276.5,72.8333 276.5,146.167 276.5,219.5C 184.167,219.5 91.8333,219.5 -0.5,219.5C -0.5,146.167 -0.5,72.8333 -0.5,-0.5 Z"/></g>
<g><path style="opacity:1" fill="#1b2593" d="M 79.5,19.5 C 85.1608,18.3417 89.8274,19.8417 93.5,24C 101.574,28.2516 108.574,26.9183 114.5,20C 117.817,19.5017 121.15,19.335 124.5,19.5C 120.891,30.0787 113.391,35.7454 102,36.5C 90.86,35.5132 83.36,29.8466 79.5,19.5 Z"/></g>
<g><path style="opacity:1" fill="#1a2493" d="M 67.5,79.5 C 65.5977,76.6627 64.931,73.3293 65.5,69.5C 73.2365,61.6882 73.4031,53.6882 66,45.5C 65.3333,41.8333 65.3333,38.1667 66,34.5C 81.4719,43.1334 85.1386,55.4668 77,71.5C 74.2532,74.7537 71.0865,77.4203 67.5,79.5 Z"/></g>
<g><path style="opacity:1" fill="#1e2694" d="M 138.5,69.5 C 138.813,73.0419 138.479,76.3752 137.5,79.5C 127.921,75.2042 122.921,67.7042 122.5,57C 122.89,47.8812 126.89,40.8812 134.5,36C 136.025,34.9914 137.692,34.4914 139.5,34.5C 140.658,40.1608 139.158,44.8274 135,48.5C 130.902,56.4981 132.069,63.4981 138.5,69.5 Z"/></g>
<g><path style="opacity:1" fill="#1a2392" d="M 98.5,47.5 C 108.536,47.0321 112.702,51.6987 111,61.5C 104.953,68.1583 98.953,68.1583 93,61.5C 91.268,55.3137 93.1014,50.647 98.5,47.5 Z"/></g>
<g><path style="opacity:1" fill="#898fc8" d="M 65.5,69.5 C 64.931,73.3293 65.5977,76.6627 67.5,79.5C 66.791,80.404 65.791,80.7373 64.5,80.5C 64.185,76.6286 64.5184,72.9619 65.5,69.5 Z"/></g>
<g><path style="opacity:1" fill="#6f77be" d="M 138.5,69.5 C 139.808,73.0187 139.808,76.6853 138.5,80.5C 137.893,80.3764 137.56,80.0431 137.5,79.5C 138.479,76.3752 138.813,73.0419 138.5,69.5 Z"/></g>
<g><path style="opacity:1" fill="#172292" d="M 94.5,78.5 C 108.262,76.2927 118.262,81.2927 124.5,93.5C 118.569,95.6896 113.569,94.523 109.5,90C 101.835,85.9553 95.1682,87.2886 89.5,94C 86.1177,94.8236 82.7844,94.657 79.5,93.5C 82.8826,86.784 87.8826,81.784 94.5,78.5 Z"/></g>
<g><path style="opacity:1" fill="#1d2897" d="M 108.5,108.5 C 109.833,108.5 111.167,108.5 112.5,108.5C 112.5,109.833 112.5,111.167 112.5,112.5C 111.167,112.5 109.833,112.5 108.5,112.5C 108.5,111.167 108.5,109.833 108.5,108.5 Z"/></g>
<g><path style="opacity:1" fill="#282e99" d="M 176.5,108.5 C 177.833,108.5 179.167,108.5 180.5,108.5C 180.5,109.833 180.5,111.167 180.5,112.5C 178.833,112.5 177.167,112.5 175.5,112.5C 175.433,111.041 175.766,109.708 176.5,108.5 Z"/></g>
<g><path style="opacity:1" fill="#282e99" d="M 203.5,108.5 C 204.873,108.343 206.207,108.51 207.5,109C 206.32,110.896 204.82,112.396 203,113.5C 202.5,113.167 202,112.833 201.5,112.5C 202.18,111.14 202.847,109.807 203.5,108.5 Z"/></g>
<g><path style="opacity:1" fill="#30339b" d="M 186.5,110.5 C 187.833,110.5 189.167,110.5 190.5,110.5C 190.5,112.167 190.5,113.833 190.5,115.5C 191.5,115.5 192.5,115.5 193.5,115.5C 193.5,116.833 193.5,118.167 193.5,119.5C 192.5,119.5 191.5,119.5 190.5,119.5C 190.5,122.167 190.5,124.833 190.5,127.5C 191.5,127.5 192.5,127.5 193.5,127.5C 193.5,128.833 193.5,130.167 193.5,131.5C 190.956,131.896 188.789,131.229 187,129.5C 185.684,126.312 185.184,122.978 185.5,119.5C 184.5,119.5 183.5,119.5 182.5,119.5C 182.5,118.167 182.5,116.833 182.5,115.5C 185.91,115.616 187.244,113.95 186.5,110.5 Z"/></g>
<g><path style="opacity:1" fill="#202997" d="M 103.5,118.5 C 103.5,122.5 103.5,126.5 103.5,130.5C 102.5,130.5 101.5,130.5 100.5,130.5C 100.813,126.958 100.479,123.625 99.5,120.5C 97.7768,119.193 95.9435,119.193 94,120.5C 93.5017,123.817 93.335,127.15 93.5,130.5C 92.1667,130.5 90.8333,130.5 89.5,130.5C 89.5,125.5 89.5,120.5 89.5,115.5C 92.5514,115.636 95.5514,115.302 98.5,114.5C 100.815,115.141 102.481,116.475 103.5,118.5 Z"/></g>
<g><path style="opacity:1" fill="#162494" d="M 108.5,115.5 C 109.833,115.5 111.167,115.5 112.5,115.5C 112.5,120.5 112.5,125.5 112.5,130.5C 111.167,130.5 109.833,130.5 108.5,130.5C 108.5,125.5 108.5,120.5 108.5,115.5 Z"/></g>
<g><path style="opacity:1" fill="#1e2896" d="M 150.5,115.5 C 153.5,115.5 156.5,115.5 159.5,115.5C 159.5,116.833 159.5,118.167 159.5,119.5C 157.856,119.286 156.356,119.62 155,120.5C 154.502,123.817 154.335,127.15 154.5,130.5C 153.167,130.5 151.833,130.5 150.5,130.5C 150.5,125.5 150.5,120.5 150.5,115.5 Z"/></g>
<g><path style="opacity:1" fill="#8c92c9" d="M 176.5,115.5 C 176.5,120.5 176.5,125.5 176.5,130.5C 177.5,130.5 178.5,130.5 179.5,130.5C 179.833,130.5 180.167,130.5 180.5,130.5C 179.081,131.451 177.415,131.784 175.5,131.5C 175.179,125.974 175.512,120.64 176.5,115.5 Z"/></g>
<g><path style="opacity:1" fill="#5057ae" d="M 176.5,115.5 C 177.568,114.566 178.901,114.232 180.5,114.5C 180.5,119.833 180.5,125.167 180.5,130.5C 180.167,130.5 179.833,130.5 179.5,130.5C 179.5,125.5 179.5,120.5 179.5,115.5C 178.5,115.5 177.5,115.5 176.5,115.5 Z"/></g>
<g><path style="opacity:1" fill="#122091" d="M 176.5,115.5 C 177.5,115.5 178.5,115.5 179.5,115.5C 179.5,120.5 179.5,125.5 179.5,130.5C 178.5,130.5 177.5,130.5 176.5,130.5C 176.5,125.5 176.5,120.5 176.5,115.5 Z"/></g>
<g><path style="opacity:1" fill="#262d98" d="M 137.5,114.5 C 144.5,114.167 147.833,117.5 147.5,124.5C 143.774,124.177 140.107,124.511 136.5,125.5C 137.171,126.946 138.338,127.612 140,127.5C 141.841,126.875 143.674,126.708 145.5,127C 145.957,127.414 146.291,127.914 146.5,128.5C 138.77,133.471 133.77,131.471 131.5,122.5C 132.357,118.977 134.357,116.31 137.5,114.5 Z"/></g>
<g><path style="opacity:1" fill="#c8cae5" d="M 137.5,118.5 C 139.827,118.247 141.827,118.914 143.5,120.5C 141.167,121.833 138.833,121.833 136.5,120.5C 136.863,119.817 137.196,119.15 137.5,118.5 Z"/></g>
<g><path style="opacity:1" fill="#232b97" d="M 200.5,114.5 C 207.475,114.303 210.809,117.636 210.5,124.5C 206.774,124.177 203.107,124.511 199.5,125.5C 201.915,128.128 204.415,128.128 207,125.5C 210.426,128.133 209.926,129.966 205.5,131C 197.513,131.344 194.013,127.511 195,119.5C 196.73,117.598 198.563,115.931 200.5,114.5 Z"/></g>
<g><path style="opacity:1" fill="#e0e1f0" d="M 200.5,118.5 C 202.665,118.116 204.332,118.783 205.5,120.5C 203.5,121.833 201.5,121.833 199.5,120.5C 199.863,119.817 200.196,119.15 200.5,118.5 Z"/></g>
<g><path style="opacity:1" fill="#767cc0" d="M 103.5,118.5 C 104.485,122.634 104.818,126.968 104.5,131.5C 102.833,131.5 101.167,131.5 99.5,131.5C 99.5,127.833 99.5,124.167 99.5,120.5C 100.479,123.625 100.813,126.958 100.5,130.5C 101.5,130.5 102.5,130.5 103.5,130.5C 103.5,126.5 103.5,122.5 103.5,118.5 Z"/></g>
<g><path style="opacity:1" fill="#262d98" d="M 164.5,114.5 C 167.564,114.144 170.231,114.977 172.5,117C 171.953,117.925 171.287,118.758 170.5,119.5C 169.264,118.754 167.93,118.421 166.5,118.5C 166.5,119.5 166.5,120.5 166.5,121.5C 172.023,121.562 173.856,124.229 172,129.5C 167.941,132.259 164.108,131.925 160.5,128.5C 160.887,127.28 161.72,126.613 163,126.5C 164.882,127.606 166.716,127.606 168.5,126.5C 166.573,124.898 164.406,123.565 162,122.5C 161.018,119.225 161.851,116.559 164.5,114.5 Z"/></g>
<g><path style="opacity:1" fill="#1f2895" d="M 115.5,115.5 C 116.833,115.5 118.167,115.5 119.5,115.5C 120.092,118.691 121.259,121.691 123,124.5C 123.834,121.828 124.668,119.161 125.5,116.5C 127.074,115.369 128.741,115.202 130.5,116C 128.404,120.691 126.737,125.525 125.5,130.5C 123.533,130.739 121.699,130.406 120,129.5C 118.198,124.905 116.698,120.238 115.5,115.5 Z"/></g>
<g><path style="opacity:1" fill="#2a2f99" d="M 65.5,108.5 C 67.1667,108.5 68.8333,108.5 70.5,108.5C 70.3341,113.511 70.5007,118.511 71,123.5C 73.5281,127.085 76.5281,127.418 80,124.5C 80.4994,119.177 80.666,113.844 80.5,108.5C 82.1667,108.5 83.8333,108.5 85.5,108.5C 85.666,113.844 85.4994,119.177 85,124.5C 81.9439,130.943 77.1106,132.776 70.5,130C 68.6217,128.457 67.1217,126.624 66,124.5C 65.5006,119.177 65.334,113.844 65.5,108.5 Z"/></g>
<g><path style="opacity:1" fill="#2f339b" d="M 125.5,144.5 C 126.833,144.5 128.167,144.5 129.5,144.5C 129.5,146.167 129.5,147.833 129.5,149.5C 130.5,149.5 131.5,149.5 132.5,149.5C 132.5,150.833 132.5,152.167 132.5,153.5C 131.5,153.5 130.5,153.5 129.5,153.5C 129.5,156.167 129.5,158.833 129.5,161.5C 130.5,161.5 131.5,161.5 132.5,161.5C 132.5,162.833 132.5,164.167 132.5,165.5C 130.473,165.662 128.473,165.495 126.5,165C 125.874,164.25 125.374,163.416 125,162.5C 124.834,158.669 124.001,155.003 122.5,151.5C 124.849,149.796 125.849,147.463 125.5,144.5 Z"/></g>
<g><path style="opacity:1" fill="#1a2594" d="M 100.5,159.5 C 101.479,156.375 101.813,153.042 101.5,149.5C 102.5,149.5 103.5,149.5 104.5,149.5C 104.5,154.5 104.5,159.5 104.5,164.5C 102.602,163.904 100.935,163.904 99.5,164.5C 96.8569,165.979 94.3569,165.646 92,163.5C 90.6211,158.964 90.1211,154.297 90.5,149.5C 91.8333,149.5 93.1667,149.5 94.5,149.5C 94.335,152.85 94.5017,156.183 95,159.5C 96.9688,162.124 98.8022,162.124 100.5,159.5 Z"/></g>
<g><path style="opacity:1" fill="#5a60b1" d="M 99.5,164.5 C 100.935,163.904 102.602,163.904 104.5,164.5C 104.5,159.5 104.5,154.5 104.5,149.5C 103.5,149.5 102.5,149.5 101.5,149.5C 101.813,153.042 101.479,156.375 100.5,159.5C 100.5,155.833 100.5,152.167 100.5,148.5C 102.167,148.5 103.833,148.5 105.5,148.5C 105.5,154.167 105.5,159.833 105.5,165.5C 103.379,165.675 101.379,165.341 99.5,164.5 Z"/></g>
<g><path style="opacity:1" fill="#1f2895" d="M 71.5,142.5 C 74.8499,142.335 78.1832,142.502 81.5,143C 85.8594,144.503 86.3594,146.67 83,149.5C 78.368,145.302 74.0346,145.636 70,150.5C 68.7247,158.22 71.8914,161.72 79.5,161C 81.1066,159.951 81.7733,158.451 81.5,156.5C 80.1667,156.5 78.8333,156.5 77.5,156.5C 77.5,155.167 77.5,153.833 77.5,152.5C 80.5,152.5 83.5,152.5 86.5,152.5C 87.1713,164.258 81.838,168.091 70.5,164C 65.3154,159.053 64.1487,153.219 67,146.5C 68.6667,145.267 70.1667,143.933 71.5,142.5 Z"/></g>
<g><path style="opacity:1" fill="#7c83c2" d="M 147.5,152.5 C 148.485,156.634 148.818,160.968 148.5,165.5C 146.585,165.784 144.919,165.451 143.5,164.5C 144.833,164.5 146.167,164.5 147.5,164.5C 147.5,160.5 147.5,156.5 147.5,152.5 Z"/></g>
<g><path style="opacity:1" fill="#232b97" d="M 171.5,149.5 C 179.167,147.844 182.833,150.844 182.5,158.5C 178.774,158.177 175.107,158.511 171.5,159.5C 173.799,161.769 176.466,162.102 179.5,160.5C 182.151,162.415 181.817,163.915 178.5,165C 168.652,165.512 165.485,161.012 169,151.5C 169.995,150.934 170.828,150.267 171.5,149.5 Z"/></g>
<g><path style="opacity:1" fill="#e7e8f4" d="M 173.5,152.5 C 175.681,152.284 177.347,153.117 178.5,155C 176.167,155.667 173.833,155.667 171.5,155C 172.381,154.292 173.047,153.458 173.5,152.5 Z"/></g>
<g><path style="opacity:1" fill="#272e99" d="M 150.5,149.5 C 152.144,149.286 153.644,149.62 155,150.5C 156,153.5 157,156.5 158,159.5C 158.873,156.382 160.039,153.382 161.5,150.5C 162.689,149.571 164.022,149.238 165.5,149.5C 163.833,154.833 162.167,160.167 160.5,165.5C 158.833,165.5 157.167,165.5 155.5,165.5C 153.833,160.167 152.167,154.833 150.5,149.5 Z"/></g>
<g><path style="opacity:1" fill="#262d98" d="M 110.5,149.5 C 113.187,149.336 115.854,149.503 118.5,150C 119.821,151.545 119.488,152.711 117.5,153.5C 116.109,152.355 114.776,152.355 113.5,153.5C 114.853,155.738 116.853,157.071 119.5,157.5C 120.519,164.298 117.519,166.798 110.5,165C 107.921,163.388 107.921,161.888 110.5,160.5C 112.198,161.681 113.865,161.681 115.5,160.5C 113.573,158.898 111.406,157.565 109,156.5C 108.167,153.829 108.667,151.496 110.5,149.5 Z"/></g>
<g><path style="opacity:1" fill="#252c98" d="M 147.5,152.5 C 147.5,156.5 147.5,160.5 147.5,164.5C 146.167,164.5 144.833,164.5 143.5,164.5C 137.07,167.217 134.237,165.217 135,158.5C 137.305,156.184 140.138,154.85 143.5,154.5C 141.641,151.981 139.641,151.981 137.5,154.5C 135.027,152.902 135.027,151.402 137.5,150C 140.167,149.333 142.833,149.333 145.5,150C 146.381,150.708 147.047,151.542 147.5,152.5 Z"/></g>
<g><path style="opacity:1" fill="#e7e8f4" d="M 139.5,158.5 C 144.276,158.671 144.609,159.671 140.5,161.5C 138.197,161.124 137.863,160.124 139.5,158.5 Z"/></g>
<g><path style="opacity:1" fill="#2b329b" d="M 86.5,176.5 C 90.1612,176.35 91.1612,177.85 89.5,181C 85.7071,181.487 84.7071,179.987 86.5,176.5 Z"/></g>
<g><path style="opacity:1" fill="#192493" d="M 138.5,176.5 C 138.5,183.833 138.5,191.167 138.5,198.5C 137.167,198.5 135.833,198.5 134.5,198.5C 134.5,191.167 134.5,183.833 134.5,176.5C 135.833,176.5 137.167,176.5 138.5,176.5 Z"/></g>
<g><path style="opacity:1" fill="#8086c5" d="M 138.5,176.5 C 139.492,183.982 139.825,191.648 139.5,199.5C 137.585,199.784 135.919,199.451 134.5,198.5C 135.833,198.5 137.167,198.5 138.5,198.5C 138.5,191.167 138.5,183.833 138.5,176.5 Z"/></g>
<g><path style="opacity:1" fill="#162393" d="M 66.5,176.5 C 71.8333,176.5 77.1667,176.5 82.5,176.5C 82.5,177.833 82.5,179.167 82.5,180.5C 78.5,180.5 74.5,180.5 70.5,180.5C 70.2155,182.415 70.5489,184.081 71.5,185.5C 74.1667,185.5 76.8333,185.5 79.5,185.5C 79.5,186.833 79.5,188.167 79.5,189.5C 76.5,189.5 73.5,189.5 70.5,189.5C 70.5,191.5 70.5,193.5 70.5,195.5C 74.5,195.5 78.5,195.5 82.5,195.5C 82.5,196.5 82.5,197.5 82.5,198.5C 77.1667,198.5 71.8333,198.5 66.5,198.5C 66.5,191.167 66.5,183.833 66.5,176.5 Z"/></g>
<g><path style="opacity:1" fill="#7179bc" d="M 82.5,180.5 C 79.0381,181.482 75.3714,181.815 71.5,181.5C 71.5,182.833 71.5,184.167 71.5,185.5C 70.5489,184.081 70.2155,182.415 70.5,180.5C 74.5,180.5 78.5,180.5 82.5,180.5 Z"/></g>
<g><path style="opacity:1" fill="#1d2795" d="M 99.5,183.5 C 100.209,184.404 101.209,184.737 102.5,184.5C 102.5,185.5 102.5,186.5 102.5,187.5C 101.209,187.263 100.209,187.596 99.5,188.5C 99.5,192.167 99.5,195.833 99.5,199.5C 98.1667,199.5 96.8333,199.5 95.5,199.5C 95.9652,194.795 95.2986,190.295 93.5,186C 95.0028,184.079 95.6695,181.912 95.5,179.5C 97.3914,176.828 100.058,175.828 103.5,176.5C 103.5,177.833 103.5,179.167 103.5,180.5C 102.167,180.5 100.833,180.5 99.5,180.5C 99.5,181.5 99.5,182.5 99.5,183.5 Z"/></g>
<g><path style="opacity:1" fill="#5c64b4" d="M 86.5,183.5 C 86.5,188.5 86.5,193.5 86.5,198.5C 87.5,198.5 88.5,198.5 89.5,198.5C 89.5,193.5 89.5,188.5 89.5,183.5C 90.4881,188.64 90.8214,193.974 90.5,199.5C 88.8333,199.5 87.1667,199.5 85.5,199.5C 85.1786,193.974 85.5119,188.64 86.5,183.5 Z"/></g>
<g><path style="opacity:1" fill="#142292" d="M 86.5,183.5 C 87.5,183.5 88.5,183.5 89.5,183.5C 89.5,188.5 89.5,193.5 89.5,198.5C 88.5,198.5 87.5,198.5 86.5,198.5C 86.5,193.5 86.5,188.5 86.5,183.5 Z"/></g>
<g><path style="opacity:1" fill="#9ea3d2" d="M 99.5,183.5 C 101.833,183.5 104.167,183.5 106.5,183.5C 103.833,185.167 103.833,186.833 106.5,188.5C 104.167,188.5 101.833,188.5 99.5,188.5C 100.209,187.596 101.209,187.263 102.5,187.5C 102.5,186.5 102.5,185.5 102.5,184.5C 101.209,184.737 100.209,184.404 99.5,183.5 Z"/></g>
<g><path style="opacity:1" fill="#1c2795" d="M 106.5,188.5 C 103.833,186.833 103.833,185.167 106.5,183.5C 106,177.671 108.666,175.337 114.5,176.5C 114.5,177.833 114.5,179.167 114.5,180.5C 113.167,180.5 111.833,180.5 110.5,180.5C 110.5,181.833 110.5,183.167 110.5,184.5C 111.833,184.5 113.167,184.5 114.5,184.5C 114.5,185.5 114.5,186.5 114.5,187.5C 113.167,187.5 111.833,187.5 110.5,187.5C 110.5,191.5 110.5,195.5 110.5,199.5C 109.167,199.5 107.833,199.5 106.5,199.5C 106.5,195.833 106.5,192.167 106.5,188.5 Z"/></g>
<g><path style="opacity:1" fill="#242b97" d="M 120.5,183.5 C 127.523,182.53 131.19,185.53 131.5,192.5C 127.774,192.177 124.107,192.511 120.5,193.5C 122.799,195.769 125.466,196.102 128.5,194.5C 131.175,197.01 130.508,198.51 126.5,199C 120.57,199.913 116.903,197.413 115.5,191.5C 116.171,188.147 117.838,185.48 120.5,183.5 Z"/></g>
<g><path style="opacity:1" fill="#e0e1f1" d="M 122.5,186.5 C 124.681,186.284 126.347,187.117 127.5,189C 125.167,189.667 122.833,189.667 120.5,189C 121.381,188.292 122.047,187.458 122.5,186.5 Z"/></g>
<g><path style="opacity:1" fill="#989ccf" d="M 95.5,179.5 C 95.6695,181.912 95.0028,184.079 93.5,186C 95.2986,190.295 95.9652,194.795 95.5,199.5C 94.8684,195.055 93.8684,190.555 92.5,186C 93.4158,183.676 94.4158,181.509 95.5,179.5 Z"/></g>
<g><path style="opacity:1" fill="#7980c3" d="M 66.5,176.5 C 66.5,183.833 66.5,191.167 66.5,198.5C 71.8333,198.5 77.1667,198.5 82.5,198.5C 82.5,197.5 82.5,196.5 82.5,195.5C 78.5,195.5 74.5,195.5 70.5,195.5C 70.5,193.5 70.5,191.5 70.5,189.5C 73.5,189.5 76.5,189.5 79.5,189.5C 77.0521,190.473 74.3854,190.806 71.5,190.5C 71.5,191.833 71.5,193.167 71.5,194.5C 75.5,194.5 79.5,194.5 83.5,194.5C 83.5,196.167 83.5,197.833 83.5,199.5C 77.5,199.5 71.5,199.5 65.5,199.5C 65.1746,191.648 65.508,183.982 66.5,176.5 Z"/></g>
</svg>
