<?xml version="1.0" encoding="UTF-8"?>
<!DOCTYPE svg PUBLIC "-//W3C//DTD SVG 1.1//EN" "http://www.w3.org/Graphics/SVG/1.1/DTD/svg11.dtd">
<svg xmlns="http://www.w3.org/2000/svg" version="1.1" width="1280px" height="609px" style="shape-rendering:geometricPrecision; text-rendering:geometricPrecision; image-rendering:optimizeQuality; fill-rule:evenodd; clip-rule:evenodd" xmlns:xlink="http://www.w3.org/1999/xlink">
<g><path style="opacity:0.991" fill="#82e600" d="M 144.5,46.5 C 179.167,46.5 213.833,46.5 248.5,46.5C 248.849,109.64 252.016,172.64 258,235.5C 259.179,248.934 261.012,262.267 263.5,275.5C 298.607,201.852 326.607,125.519 347.5,46.5C 379.502,46.3334 411.502,46.5 443.5,47C 402.938,160.292 353.271,269.459 294.5,374.5C 277.667,374.833 260.833,375.167 244,375.5C 226.781,375.493 209.781,374.826 193,373.5C 164.754,266.28 148.588,157.28 144.5,46.5 Z"/></g>
<g><path style="opacity:0.99" fill="#82e600" d="M 661.5,46.5 C 691.5,46.5 721.5,46.5 751.5,46.5C 738.577,156.217 725.244,265.883 711.5,375.5C 681.5,375.5 651.5,375.5 621.5,375.5C 634.98,265.851 648.313,156.184 661.5,46.5 Z"/></g>
<g><path style="opacity:0.989" fill="#82e600" d="M 859.5,125.5 C 879.054,124.443 898.388,125.943 917.5,130C 952.718,139.546 972.551,162.38 977,198.5C 978.395,224.221 975.895,249.554 969.5,274.5C 924.833,274.5 880.167,274.5 835.5,274.5C 833.655,294.344 841.988,307.511 860.5,314C 875.334,317.256 890.334,318.256 905.5,317C 921.686,315.136 937.686,312.302 953.5,308.5C 949.988,328.577 946.154,348.577 942,368.5C 899.144,378.467 855.977,379.967 812.5,373C 773.214,365.384 750.714,341.884 745,302.5C 743.275,275.612 744.941,248.945 750,222.5C 761.556,161.831 798.056,129.498 859.5,125.5 Z M 866.5,175.5 C 883.48,175.145 892.48,183.478 893.5,200.5C 892.791,207.886 891.791,215.219 890.5,222.5C 873.167,222.5 855.833,222.5 838.5,222.5C 839.585,211.826 842.085,201.493 846,191.5C 850.431,182.882 857.265,177.549 866.5,175.5 Z"/></g>
<g><path style="opacity:0.991" fill="#82e600" d="M 1103.5,125.5 C 1127.54,123.954 1151.2,126.121 1174.5,132C 1206.86,141.689 1225.69,163.189 1231,196.5C 1233.98,232.757 1230.64,268.424 1221,303.5C 1207.01,348.822 1176.51,374.655 1129.5,381C 1099.96,384.979 1070.79,383.146 1042,375.5C 1009.22,364.613 991.217,341.946 988,307.5C 986.011,274.69 989.011,242.357 997,210.5C 1012.52,157.146 1048.02,128.813 1103.5,125.5 Z M 1112.5,176.5 C 1127.67,175.342 1136.17,182.342 1138,197.5C 1139.44,233.575 1136.1,269.242 1128,304.5C 1126.06,311.702 1123.06,318.369 1119,324.5C 1110.88,331.945 1101.71,333.445 1091.5,329C 1086.14,324.781 1082.97,319.281 1082,312.5C 1079.87,273.979 1083.54,235.979 1093,198.5C 1095.63,187.473 1102.13,180.139 1112.5,176.5 Z"/></g>
<g><path style="opacity:0.991" fill="#82e600" d="M 516.5,127.5 C 553.505,127.381 590.505,127.714 627.5,128.5C 617.254,210.802 607.254,293.135 597.5,375.5C 568.831,375.667 540.165,375.5 511.5,375C 513.116,369.576 513.449,364.076 512.5,358.5C 487.132,374.926 459.465,381.426 429.5,378C 404.869,374.368 389.369,360.534 383,336.5C 375.434,294.757 378.434,253.757 392,213.5C 406.936,170.561 436.436,143.727 480.5,133C 492.547,130.498 504.547,128.665 516.5,127.5 Z M 517.5,181.5 C 521.833,181.5 526.167,181.5 530.5,181.5C 525.663,224.199 520.496,266.865 515,309.5C 508.13,314.458 500.463,317.458 492,318.5C 481.842,318.263 475.509,313.263 473,303.5C 470.388,274.384 473.055,245.718 481,217.5C 484.244,204.823 491.077,194.657 501.5,187C 506.715,184.429 512.048,182.596 517.5,181.5 Z"/></g>
<g><path style="opacity:0.989" fill="#4d6a7b" d="M 47.5,360.5 C 106.101,383.27 154.934,419.27 194,468.5C 301.174,446.618 409.341,431.451 518.5,423C 703.346,409.081 888.346,406.748 1073.5,416C 1115.85,418.21 1158.19,420.71 1200.5,423.5C 1200.5,425.833 1200.5,428.167 1200.5,430.5C 1002.48,425.89 805.145,435.39 608.5,459C 488.812,473.673 371.145,498.006 255.5,532C 226.62,540.848 198.12,550.682 170,561.5C 144.087,487.297 103.754,422.297 49,366.5C 46.9599,364.719 46.4599,362.719 47.5,360.5 Z"/></g>
</svg>
