<?xml version="1.0" standalone="no"?>
<!DOCTYPE svg PUBLIC "-//W3C//DTD SVG 20010904//EN"
 "http://www.w3.org/TR/2001/REC-SVG-20010904/DTD/svg10.dtd">
<svg version="1.0" xmlns="http://www.w3.org/2000/svg"
 width="512.000000pt" height="512.000000pt" viewBox="0 0 512.000000 512.000000"
 preserveAspectRatio="xMidYMid meet">

<g transform="translate(0.000000,512.000000) scale(0.100000,-0.100000)"
fill="#000000" stroke="none">
<path d="M1636 5097 c-55 -55 -22 -115 68 -128 36 -5 69 -16 90 -33 117 -89
65 -271 -81 -283 -101 -8 -180 79 -169 187 7 61 -3 83 -45 99 -36 13 -86 -10
-96 -46 -4 -15 -7 -60 -7 -98 l1 -70 -430 -242 -430 -242 -31 26 c-87 73 -224
90 -328 40 -65 -32 -121 -89 -151 -156 -31 -67 -30 -188 2 -253 29 -61 89
-120 149 -150 38 -19 63 -23 132 -23 85 0 116 9 182 52 l28 18 127 -134 c71
-74 133 -142 140 -151 10 -14 -19 -66 -182 -331 l-194 -314 -93 0 c-80 -1
-100 -4 -143 -27 -111 -58 -170 -154 -169 -278 0 -92 26 -158 87 -218 66 -64
125 -87 230 -87 l88 0 174 -283 c96 -155 175 -286 175 -290 0 -4 -67 -76 -148
-161 l-147 -154 -54 18 c-148 49 -313 -21 -382 -163 -32 -65 -33 -186 -2 -253
45 -100 141 -170 249 -184 66 -9 163 18 220 61 l42 32 429 -241 429 -241 0
-80 c0 -61 5 -92 21 -127 30 -66 86 -124 151 -156 48 -24 70 -28 137 -28 67 0
88 5 130 27 63 33 115 88 149 156 l26 52 244 0 243 0 17 -44 c38 -98 145 -180
254 -193 63 -7 106 9 122 46 22 54 -16 101 -82 101 -57 0 -120 39 -145 90 -28
55 -29 89 -3 140 30 58 74 85 140 85 97 0 160 -70 160 -179 0 -47 4 -57 26
-75 30 -24 43 -26 78 -10 36 17 50 59 43 132 l-5 62 431 242 431 241 31 -24
c92 -70 223 -89 317 -47 67 31 132 94 159 158 l24 55 194 0 195 0 -26 -28
c-39 -40 -48 -72 -33 -108 14 -33 32 -44 72 -44 19 0 46 21 106 83 156 162
156 185 5 334 -96 94 -122 106 -163 70 -40 -34 -38 -77 5 -122 l34 -35 -196 0
-195 0 -17 43 c-55 144 -225 221 -381 171 l-58 -18 -148 155 c-86 89 -146 160
-143 168 2 7 81 138 175 290 l171 277 92 -1 c80 0 97 3 142 27 60 32 138 114
154 163 l12 35 196 0 196 0 -34 -35 c-59 -60 -35 -135 43 -135 26 0 47 15 123
93 139 141 139 173 0 314 -81 83 -95 93 -127 93 -74 0 -97 -75 -41 -133 18
-18 32 -36 32 -40 0 -4 -85 -7 -190 -7 l-189 0 -25 53 c-32 65 -85 121 -150
155 -45 24 -62 27 -142 27 l-92 -1 -195 316 -195 315 36 40 c19 22 82 89 140
149 l105 109 26 -17 c65 -43 96 -51 186 -51 81 0 95 3 144 30 60 33 123 105
141 160 l12 35 196 0 196 0 -33 -34 c-57 -59 -35 -139 39 -139 26 0 46 14 116
84 148 146 150 171 19 314 -48 53 -98 98 -111 101 -41 10 -74 -4 -89 -38 -15
-38 -6 -70 33 -110 l26 -28 -195 0 -194 0 -24 55 c-79 182 -311 236 -476 111
l-31 -24 -430 241 -429 242 0 85 c0 73 -4 92 -27 135 -32 60 -87 115 -148 146
-65 33 -184 33 -258 0 -63 -28 -133 -103 -158 -166 l-17 -45 -243 0 -244 0
-25 50 c-56 110 -150 177 -264 187 -54 5 -62 3 -85 -20z m1252 -154 c51 -38
67 -70 67 -133 0 -44 -5 -66 -21 -86 -70 -94 -192 -98 -261 -8 -63 83 -24 206
77 247 28 12 111 0 138 -20z m-373 -250 l13 -31 -136 -145 c-76 -80 -142 -146
-147 -146 -10 -1 -57 46 -218 215 l-58 61 17 42 16 41 250 -2 250 -3 13 -32z
m-1041 -105 c-6 -11 -404 -659 -409 -666 -3 -4 -429 100 -437 107 -4 3 -8 23
-10 45 l-3 38 430 243 c237 134 431 244 433 244 2 1 0 -5 -4 -11z m1978 -230
c227 -127 419 -237 427 -244 11 -10 13 -22 5 -51 l-9 -38 -215 -52 c-165 -40
-218 -49 -226 -40 -12 13 -404 646 -404 653 0 2 2 4 5 4 2 0 190 -104 417
-232z m-742 159 c42 -15 70 -18 122 -14 l67 6 192 -310 c105 -171 189 -312
186 -315 -7 -7 -199 -56 -201 -52 -25 44 -87 102 -138 127 -52 27 -72 31 -137
31 -53 0 -89 -6 -118 -19 l-42 -19 -145 152 -145 153 137 146 c93 99 142 144
152 140 8 -3 40 -15 70 -26z m-707 -123 l137 -140 -143 -149 -143 -149 -42 17
c-64 26 -175 23 -237 -7 -52 -24 -96 -61 -130 -109 l-20 -27 -98 24 c-54 13
-100 26 -103 28 -3 3 82 145 187 316 l192 311 71 -4 c55 -4 83 -1 121 14 28
10 55 18 60 17 6 0 72 -64 148 -142z m-1623 -226 c148 -75 95 -298 -70 -298
-120 0 -197 132 -138 235 25 43 93 85 138 85 14 0 46 -10 70 -22z m3880 0 c57
-30 82 -65 88 -126 8 -90 -51 -161 -139 -170 -83 -8 -145 35 -170 116 -28 95
50 196 156 201 12 1 41 -9 65 -21z m-1864 -178 l140 -145 -20 -42 -19 -43
-247 0 -247 0 -17 45 -18 45 27 33 c65 77 241 255 251 254 6 -1 73 -67 150
-147z m-1564 -168 l146 -37 -46 -77 -47 -78 -38 38 c-63 61 -180 192 -171 192
5 0 75 -17 156 -38z m2982 16 c-35 -44 -189 -198 -196 -198 -9 0 -92 139 -86
145 4 5 273 72 292 74 5 1 1 -9 -10 -21z m-2027 -19 c18 -12 42 -38 53 -60 56
-108 -17 -229 -137 -229 -91 0 -158 66 -158 155 0 60 20 95 75 133 44 29 119
30 167 1z m1097 1 c42 -27 76 -87 76 -134 0 -49 -31 -105 -75 -135 -30 -20
-44 -23 -95 -19 -52 4 -65 9 -95 38 -42 40 -60 94 -51 144 7 39 57 103 90 116
39 16 119 11 150 -10z m-1485 -189 c7 -31 14 -61 17 -67 3 -8 -151 -140 -251
-215 -6 -4 -45 30 -93 81 l-82 88 71 114 71 115 127 -30 128 -30 12 -56z
m2041 3 l71 -115 -82 -90 -81 -89 -47 38 c-25 20 -85 68 -132 106 l-85 68 17
66 16 67 124 31 c68 18 125 33 126 33 1 1 33 -51 73 -115z m-924 -67 l20 -43
-141 -146 -142 -146 -143 143 -143 143 18 46 18 46 246 0 247 0 20 -43z m-817
-187 c53 0 89 6 118 20 l42 19 141 -146 c78 -80 140 -149 138 -153 -2 -5 -65
-72 -141 -149 l-139 -141 -61 21 c-48 16 -76 20 -124 16 l-61 -6 -176 185
-176 185 126 103 126 102 56 -28 c46 -23 67 -28 131 -28z m1416 -45 c61 -49
114 -92 119 -96 5 -5 -70 -91 -167 -192 l-177 -185 -63 5 c-46 4 -77 0 -122
-15 l-60 -21 -144 144 -144 144 142 149 142 150 42 -19 c29 -13 65 -19 118
-19 63 0 84 5 130 28 30 15 59 25 64 22 6 -4 60 -46 120 -95z m-2138 -23 l61
-68 -216 -174 c-180 -145 -211 -167 -191 -134 108 178 275 444 279 444 3 0 33
-31 67 -68z m2761 -161 c78 -125 142 -231 142 -235 0 -7 -397 312 -406 326 -5
8 103 134 117 137 3 0 70 -102 147 -228z m-2503 -113 c50 -51 125 -130 169
-174 l78 -81 -30 -43 c-17 -23 -36 -57 -42 -76 l-12 -34 -393 0 -393 0 -10 30
c-12 33 -57 -7 417 377 63 51 118 93 121 93 3 0 46 -42 95 -92z m2402 -125
c147 -119 269 -217 271 -218 1 -1 -3 -16 -9 -33 l-11 -32 -391 2 -392 3 -23
50 c-13 28 -33 60 -44 72 l-20 22 167 175 c92 97 171 176 176 176 4 0 128 -97
276 -217z m-1244 -41 c75 -76 137 -143 137 -147 0 -5 -7 -29 -16 -52 l-17 -43
-244 0 -244 0 -21 46 -20 46 58 62 c142 148 219 226 224 226 3 0 68 -62 143
-138z m-2016 -168 c77 -37 113 -134 78 -208 -53 -111 -197 -127 -271 -30 -24
31 -29 47 -29 94 0 47 5 63 29 94 48 63 123 83 193 50z m1411 -11 c51 -38 67
-70 67 -133 0 -97 -58 -155 -154 -155 -73 0 -121 33 -146 99 -29 76 2 158 75
198 44 24 120 20 158 -9z m1100 0 c51 -38 67 -70 67 -133 0 -63 -16 -95 -69
-134 -43 -33 -132 -29 -178 6 -51 39 -73 101 -58 159 16 57 45 98 84 115 41
19 120 12 154 -13z m1390 0 c123 -91 78 -273 -71 -290 -63 -7 -127 30 -156 90
-27 55 -26 82 2 137 42 84 154 116 225 63z m-2858 -259 l18 -42 -168 -178
c-93 -98 -172 -180 -177 -181 -7 -3 -447 347 -485 385 -12 12 -14 23 -7 40 l8
22 396 -2 396 -3 19 -41z m1095 9 c8 -20 13 -43 10 -52 -3 -9 -65 -77 -140
-151 l-134 -134 -32 29 c-17 17 -80 82 -140 147 l-110 116 17 41 16 41 249 0
249 0 15 -37z m1386 11 c5 -15 8 -28 7 -29 -2 -1 -110 -88 -242 -195 -131
-106 -244 -193 -251 -194 -7 0 -89 80 -183 179 l-170 179 21 43 21 43 393 0
393 0 11 -26z m-2282 -190 c61 -19 111 -17 180 6 l59 20 139 -141 c76 -77 139
-144 141 -149 2 -4 -60 -73 -138 -153 l-141 -146 -42 19 c-29 14 -65 20 -118
20 -64 0 -85 -5 -131 -28 l-56 -28 -148 121 c-81 66 -147 125 -145 130 1 6 75
87 164 182 109 115 167 170 177 166 8 -3 35 -12 59 -19z m1100 0 c60 -19 115
-17 181 6 l55 19 115 -122 c195 -206 223 -237 219 -241 -2 -2 -71 -58 -152
-123 l-148 -120 -56 29 c-47 23 -68 28 -132 28 -53 0 -89 -6 -118 -19 l-42
-19 -142 149 -142 150 144 145 c99 99 149 142 159 138 8 -4 35 -13 59 -20z
m-1739 -349 c0 -6 -24 -34 -53 -63 -42 -41 -56 -50 -64 -40 -8 10 -193 307
-248 397 -5 8 75 -52 178 -135 102 -82 186 -154 187 -159z m2780 88 c-67 -109
-124 -200 -127 -203 -2 -3 -30 21 -60 53 -49 51 -54 60 -42 73 31 30 344 281
348 278 2 -2 -52 -92 -119 -201z m-1244 -450 l-20 -43 -247 0 -246 0 -18 46
-18 46 143 143 143 143 142 -146 141 -146 -20 -43z m-1243 132 c81 -65 145
-123 143 -129 -2 -6 -10 -36 -17 -67 l-12 -56 -128 -30 -127 -30 -86 139 c-47
76 -86 144 -86 150 0 19 143 158 154 150 6 -5 77 -62 159 -127z m2270 -29 c-3
-6 -43 -72 -90 -147 l-83 -137 -126 32 -127 32 -16 66 -17 66 156 125 155 126
77 -76 c42 -42 74 -81 71 -87z m-1759 -86 c40 -26 76 -87 76 -130 0 -52 -38
-120 -80 -142 -26 -14 -50 -18 -93 -15 -49 3 -62 8 -92 37 -81 78 -68 192 29
251 42 25 121 25 160 -1z m1102 -2 c72 -49 94 -141 51 -211 -32 -53 -72 -77
-130 -77 -56 0 -95 18 -130 59 -52 62 -43 148 23 213 35 35 42 38 96 38 43 0
66 -6 90 -22z m-1970 -130 l63 -103 -195 -48 c-120 -30 -200 -45 -205 -40 -6
6 44 66 128 156 76 80 139 144 142 142 2 -3 32 -51 67 -107z m2878 -34 c89
-93 135 -149 129 -155 -9 -9 -378 73 -391 86 -4 3 118 215 123 215 0 0 63 -66
139 -146z m-1278 -87 l20 -43 -141 -146 -142 -146 -143 143 -143 143 18 46 18
46 246 0 247 0 20 -43z m-1062 -66 c30 -43 80 -82 138 -106 54 -22 172 -20
225 5 l42 19 141 -146 c78 -80 140 -149 138 -153 -2 -5 -65 -72 -141 -149
l-139 -141 -61 21 c-49 17 -76 20 -128 15 l-65 -6 -193 311 c-105 171 -190
314 -187 317 5 4 177 49 197 51 4 1 19 -17 33 -38z m1724 15 c52 -14 96 -27
99 -30 3 -3 -81 -145 -187 -315 l-192 -311 -67 6 c-52 5 -79 2 -126 -14 l-60
-21 -144 144 -144 144 142 149 142 150 42 -19 c29 -13 65 -19 118 -19 100 0
182 38 237 111 20 26 39 48 42 48 3 0 47 -10 98 -23z m-2788 -38 c76 -52 99
-131 61 -207 -58 -112 -216 -116 -279 -6 -59 103 18 235 138 235 32 0 57 -7
80 -22z m3892 -3 c46 -34 71 -90 66 -147 -6 -62 -31 -96 -91 -126 -66 -34
-118 -24 -173 32 -56 55 -65 107 -32 174 33 68 78 95 148 90 35 -2 66 -11 82
-23z m-3014 -356 c112 -182 202 -332 200 -334 -4 -4 -836 459 -851 474 -4 4
-4 25 1 46 l8 39 209 52 c116 28 215 52 220 52 6 1 102 -147 213 -329z m2417
272 l190 -46 9 -38 c8 -29 6 -41 -5 -51 -21 -19 -841 -478 -846 -473 -3 3 218
366 384 630 20 33 27 36 51 30 15 -3 113 -27 217 -52z m-1292 -519 c75 -76
137 -143 137 -149 0 -6 -7 -27 -15 -47 l-15 -36 -249 0 -249 0 -16 42 -17 41
58 61 c140 147 218 226 223 226 3 0 68 -62 143 -138z m-605 -179 c51 -38 67
-70 67 -133 0 -97 -58 -155 -154 -155 -73 0 -121 33 -146 99 -29 76 2 158 75
198 44 24 120 20 158 -9z"/>
</g>
</svg>
